<?xml version="1.0" encoding="UTF-8"?>
<!DOCTYPE svg PUBLIC "-//W3C//DTD SVG 1.1//EN" "http://www.w3.org/Graphics/SVG/1.1/DTD/svg11.dtd">
<svg xmlns="http://www.w3.org/2000/svg" version="1.1" width="512px" height="512px" style="shape-rendering:geometricPrecision; text-rendering:geometricPrecision; image-rendering:optimizeQuality; fill-rule:evenodd; clip-rule:evenodd" xmlns:xlink="http://www.w3.org/1999/xlink">
<g><path style="opacity:0.981" fill="#2a75ff" d="M 246.5,-0.5 C 252.5,-0.5 258.5,-0.5 264.5,-0.5C 284.793,10.3131 304.793,21.6464 324.5,33.5C 320.025,32.7322 315.525,32.0655 311,31.5C 307.765,31.5818 304.598,32.0818 301.5,33C 285.607,41.4377 270.273,50.6044 255.5,60.5C 202.313,91.5054 148.98,122.339 95.5,153C 90.9405,157.28 87.7739,162.447 86,168.5C 85.5003,175.826 85.3337,183.159 85.5,190.5C 84.8434,212.931 84.1767,235.265 83.5,257.5C 65.1169,247.558 46.9502,237.225 29,226.5C 28.3333,195.167 28.3333,163.833 29,132.5C 31.2942,126.204 35.1275,121.037 40.5,117C 109.099,77.5393 177.765,38.3726 246.5,-0.5 Z"/></g>
<g><path style="opacity:0.98" fill="#2950ff" d="M 324.5,33.5 C 350.196,47.6766 375.529,62.3433 400.5,77.5C 375.548,84.8986 350.881,92.8986 326.5,101.5C 302.67,88.086 279.003,74.4193 255.5,60.5C 270.273,50.6044 285.607,41.4377 301.5,33C 304.598,32.0818 307.765,31.5818 311,31.5C 315.525,32.0655 320.025,32.7322 324.5,33.5 Z"/></g>
<g><path style="opacity:0.978" fill="#2e4dff" d="M 400.5,77.5 C 414.968,85.2344 429.301,93.2344 443.5,101.5C 418.991,109.669 394.324,117.669 369.5,125.5C 355.032,117.766 340.699,109.766 326.5,101.5C 350.881,92.8986 375.548,84.8986 400.5,77.5 Z"/></g>
<g><path style="opacity:0.979" fill="#3945ff" d="M 443.5,101.5 C 452.022,106.506 460.689,111.339 469.5,116C 472.331,117.666 474.664,119.832 476.5,122.5C 452.287,130.434 427.954,138.1 403.5,145.5C 391.802,139.323 380.469,132.656 369.5,125.5C 394.324,117.669 418.991,109.669 443.5,101.5 Z"/></g>
<g><path style="opacity:0.98" fill="#423fff" d="M 476.5,122.5 C 478.063,123.945 479.396,125.611 480.5,127.5C 462.085,138.372 443.418,148.706 424.5,158.5C 417.668,153.916 410.668,149.583 403.5,145.5C 427.954,138.1 452.287,130.434 476.5,122.5 Z"/></g>
<g><path style="opacity:0.975" fill="#03eeff" d="M 321.5,131.5 C 321.5,149.5 321.5,167.5 321.5,185.5C 315.87,189.654 309.87,193.321 303.5,196.5C 303.5,174.167 303.5,151.833 303.5,129.5C 309.879,126.91 315.879,127.577 321.5,131.5 Z"/></g>
<g><path style="opacity:0.988" fill="#2a75ff" d="M 480.5,127.5 C 482.359,130.912 483.526,134.578 484,138.5C 484.833,156.176 484.666,173.843 483.5,191.5C 465.473,201.512 447.473,211.512 429.5,221.5C 425.379,202.462 418.713,184.462 409.5,167.5C 414.334,164.248 419.334,161.248 424.5,158.5C 443.418,148.706 462.085,138.372 480.5,127.5 Z"/></g>
<g><path style="opacity:0.979" fill="#06dfff" d="M 303.5,129.5 C 303.5,151.833 303.5,174.167 303.5,196.5C 297.795,200.353 291.795,203.686 285.5,206.5C 284.503,184.673 284.169,162.673 284.5,140.5C 290.67,136.581 297.003,132.914 303.5,129.5 Z"/></g>
<g><path style="opacity:0.932" fill="#00f9ff" d="M 321.5,131.5 C 337.39,140.045 353.057,149.045 368.5,158.5C 353.057,167.955 337.39,176.955 321.5,185.5C 321.5,167.5 321.5,149.5 321.5,131.5 Z"/></g>
<g><path style="opacity:0.979" fill="#09d3ff" d="M 284.5,140.5 C 284.169,162.673 284.503,184.673 285.5,206.5C 280.121,210.858 274.121,214.192 267.5,216.5C 267.5,194.5 267.5,172.5 267.5,150.5C 273.167,147.167 278.833,143.833 284.5,140.5 Z"/></g>
<g><path style="opacity:0.974" fill="#0cc6ff" d="M 267.5,150.5 C 267.5,172.5 267.5,194.5 267.5,216.5C 261.548,219.092 255.214,220.425 248.5,220.5C 248.5,200.833 248.5,181.167 248.5,161.5C 254.997,158.086 261.33,154.419 267.5,150.5 Z"/></g>
<g><path style="opacity:0.977" fill="#1e7bff" d="M 158.5,158.5 C 158.5,177.5 158.5,196.5 158.5,215.5C 152.33,219.419 145.997,223.086 139.5,226.5C 139.5,204.5 139.5,182.5 139.5,160.5C 145.656,157.779 151.989,157.112 158.5,158.5 Z"/></g>
<g><path style="opacity:0.975" fill="#1c86ff" d="M 158.5,158.5 C 161.341,158.56 164.007,159.226 166.5,160.5C 166.5,177.167 166.5,193.833 166.5,210.5C 164.206,212.653 161.54,214.32 158.5,215.5C 158.5,196.5 158.5,177.5 158.5,158.5 Z"/></g>
<g><path style="opacity:0.966" fill="#1a8eff" d="M 166.5,160.5 C 172.83,163.33 178.83,166.663 184.5,170.5C 184.5,180.5 184.5,190.5 184.5,200.5C 178.795,204.353 172.795,207.686 166.5,210.5C 166.5,193.833 166.5,177.167 166.5,160.5 Z"/></g>
<g><path style="opacity:0.978" fill="#216fff" d="M 139.5,160.5 C 139.5,182.5 139.5,204.5 139.5,226.5C 133.795,230.353 127.795,233.686 121.5,236.5C 121.5,214.5 121.5,192.5 121.5,170.5C 127.17,166.663 133.17,163.33 139.5,160.5 Z"/></g>
<g><path style="opacity:0.965" fill="#0fbaff" d="M 248.5,161.5 C 248.5,181.167 248.5,200.833 248.5,220.5C 241.793,220.993 235.793,219.326 230.5,215.5C 231.833,201.167 231.833,186.833 230.5,172.5C 236.464,168.848 242.464,165.181 248.5,161.5 Z"/></g>
<g><path style="opacity:0.944" fill="#1798ff" d="M 184.5,170.5 C 188.201,172.012 191.534,174.012 194.5,176.5C 194.5,183.5 194.5,190.5 194.5,197.5C 190.956,197.885 187.623,198.885 184.5,200.5C 184.5,190.5 184.5,180.5 184.5,170.5 Z"/></g>
<g><path style="opacity:0.964" fill="#12b0ff" d="M 230.5,172.5 C 231.833,186.833 231.833,201.167 230.5,215.5C 224.003,212.086 217.67,208.419 211.5,204.5C 211.5,195.833 211.5,187.167 211.5,178.5C 218.07,177.274 224.403,175.274 230.5,172.5 Z"/></g>
<g><path style="opacity:0.978" fill="#2584ff" d="M 409.5,167.5 C 418.713,184.462 425.379,202.462 429.5,221.5C 424.632,224.434 419.632,227.1 414.5,229.5C 411.323,210.299 404.99,192.299 395.5,175.5C 399.887,172.469 404.554,169.803 409.5,167.5 Z"/></g>
<g><path style="opacity:0.978" fill="#2462ff" d="M 121.5,170.5 C 121.5,192.5 121.5,214.5 121.5,236.5C 115.43,240.558 109.097,244.225 102.5,247.5C 102.5,225.5 102.5,203.5 102.5,181.5C 108.634,177.596 114.968,173.929 121.5,170.5 Z"/></g>
<g><path style="opacity:0.945" fill="#15a3ff" d="M 194.5,176.5 C 200.03,178.125 205.697,178.791 211.5,178.5C 211.5,187.167 211.5,195.833 211.5,204.5C 206.425,200.806 200.759,198.473 194.5,197.5C 194.5,190.5 194.5,183.5 194.5,176.5 Z"/></g>
<g><path style="opacity:0.977" fill="#2190ff" d="M 395.5,175.5 C 404.99,192.299 411.323,210.299 414.5,229.5C 410.864,232.323 406.864,234.656 402.5,236.5C 401.883,236.389 401.383,236.056 401,235.5C 398.54,218.165 393.207,201.832 385,186.5C 384.241,184.937 383.074,183.937 381.5,183.5C 385.887,180.469 390.554,177.803 395.5,175.5 Z"/></g>
<g><path style="opacity:0.979" fill="#2756ff" d="M 102.5,181.5 C 102.5,203.5 102.5,225.5 102.5,247.5C 96.5638,251.141 90.5638,254.808 84.5,258.5C 83.8933,258.376 83.56,258.043 83.5,257.5C 84.1767,235.265 84.8434,212.931 85.5,190.5C 91.325,187.755 96.9916,184.755 102.5,181.5 Z"/></g>
<g><path style="opacity:0.975" fill="#1d9dff" d="M 381.5,183.5 C 383.074,183.937 384.241,184.937 385,186.5C 393.207,201.832 398.54,218.165 401,235.5C 401.383,236.056 401.883,236.389 402.5,236.5C 397.202,239.485 391.868,242.485 386.5,245.5C 384.387,226.045 378.721,207.711 369.5,190.5C 373.136,187.677 377.136,185.344 381.5,183.5 Z"/></g>
<g><path style="opacity:0.976" fill="#19a9ff" d="M 369.5,190.5 C 378.721,207.711 384.387,226.045 386.5,245.5C 381.833,248.167 377.167,250.833 372.5,253.5C 371.428,233.616 366.094,214.95 356.5,197.5C 360.701,194.9 365.034,192.566 369.5,190.5 Z"/></g>
<g><path style="opacity:0.976" fill="#15b6ff" d="M 356.5,197.5 C 366.094,214.95 371.428,233.616 372.5,253.5C 366.965,256.767 361.298,259.767 355.5,262.5C 356.994,242.146 352.661,223.146 342.5,205.5C 347.167,202.833 351.833,200.167 356.5,197.5 Z"/></g>
<g><path style="opacity:0.976" fill="#11c2ff" d="M 342.5,205.5 C 352.661,223.146 356.994,242.146 355.5,262.5C 350.984,265.927 345.984,268.593 340.5,270.5C 343.204,250.089 339.871,230.756 330.5,212.5C 334.465,210.182 338.465,207.848 342.5,205.5 Z"/></g>
<g><path style="opacity:0.975" fill="#0dcfff" d="M 330.5,212.5 C 339.871,230.756 343.204,250.089 340.5,270.5C 334.929,275.121 328.596,278.454 321.5,280.5C 328.165,259.725 326.498,239.725 316.5,220.5C 320.887,217.469 325.554,214.803 330.5,212.5 Z"/></g>
<g><path style="opacity:0.981" fill="#06e8ff" d="M 218.5,215.5 C 224.356,216.764 229.689,219.097 234.5,222.5C 216.364,237.059 212.031,255.059 221.5,276.5C 217.326,279.088 212.993,281.421 208.5,283.5C 197.808,264.491 197.975,245.491 209,226.5C 211.687,222.32 214.854,218.654 218.5,215.5 Z"/></g>
<g><path style="opacity:0.972" fill="#0ad9ff" d="M 218.5,215.5 C 214.854,218.654 211.687,222.32 209,226.5C 197.975,245.491 197.808,264.491 208.5,283.5C 204.423,286.227 200.09,288.561 195.5,290.5C 185.097,270.119 183.764,249.119 191.5,227.5C 199.643,221.596 208.643,217.596 218.5,215.5 Z"/></g>
<g><path style="opacity:0.974" fill="#03f0ff" d="M 234.5,222.5 C 237.032,223.596 239.365,224.929 241.5,226.5C 224.189,238.106 219.856,253.439 228.5,272.5C 226.167,273.833 223.833,275.167 221.5,276.5C 212.031,255.059 216.364,237.059 234.5,222.5 Z"/></g>
<g><path style="opacity:0.976" fill="#0adbff" d="M 316.5,220.5 C 326.498,239.725 328.165,259.725 321.5,280.5C 316.167,281.833 310.833,281.833 305.5,280.5C 312.703,262.511 312.037,244.844 303.5,227.5C 307.674,224.912 312.007,222.579 316.5,220.5 Z"/></g>
<g><path style="opacity:0.975" fill="#07e3ff" d="M 303.5,227.5 C 312.037,244.844 312.703,262.511 305.5,280.5C 302.72,279.805 300.053,278.805 297.5,277.5C 304.417,262.01 304.084,246.677 296.5,231.5C 298.996,230.42 301.33,229.086 303.5,227.5 Z"/></g>
<g><path style="opacity:0.959" fill="#00f8ff" d="M 241.5,226.5 C 247.139,229.655 252.806,232.821 258.5,236C 266.407,238.418 274.407,238.918 282.5,237.5C 287.309,245.804 288.809,254.804 287,264.5C 286.634,266.452 285.801,268.118 284.5,269.5C 278.888,266.358 273.221,263.191 267.5,260C 264.689,259.089 261.856,258.256 259,257.5C 248.233,261.3 238.066,266.3 228.5,272.5C 219.856,253.439 224.189,238.106 241.5,226.5 Z"/></g>
<g><path style="opacity:0.977" fill="#0ecdff" d="M 191.5,227.5 C 183.764,249.119 185.097,270.119 195.5,290.5C 191.167,293.669 186.5,296.336 181.5,298.5C 171.507,279.566 168.507,259.566 172.5,238.5C 178.57,234.442 184.903,230.775 191.5,227.5 Z"/></g>
<g><path style="opacity:0.96" fill="#03eeff" d="M 296.5,231.5 C 304.084,246.677 304.417,262.01 297.5,277.5C 292.963,275.07 288.63,272.403 284.5,269.5C 285.801,268.118 286.634,266.452 287,264.5C 288.809,254.804 287.309,245.804 282.5,237.5C 287.364,236.096 292.03,234.096 296.5,231.5 Z"/></g>
<g><path style="opacity:0.98" fill="#12c0ff" d="M 172.5,238.5 C 168.507,259.566 171.507,279.566 181.5,298.5C 177.836,301.335 173.836,303.668 169.5,305.5C 159.203,287.635 154.87,268.301 156.5,247.5C 161.502,243.997 166.835,240.997 172.5,238.5 Z"/></g>
<g><path style="opacity:0.976" fill="#16b4ff" d="M 156.5,247.5 C 154.87,268.301 159.203,287.635 169.5,305.5C 165.113,308.531 160.446,311.197 155.5,313.5C 145.524,295.549 140.524,276.549 140.5,256.5C 145.502,252.997 150.835,249.997 156.5,247.5 Z"/></g>
<g><path style="opacity:0.983" fill="#216fff" d="M 439.5,262.5 C 438.176,279.069 438.176,295.735 439.5,312.5C 434.827,315.201 430.493,318.201 426.5,321.5C 423.605,322.399 420.938,323.733 418.5,325.5C 418.5,303.833 418.5,282.167 418.5,260.5C 420.99,258.084 423.99,256.418 427.5,255.5C 431.854,257.339 435.854,259.673 439.5,262.5 Z"/></g>
<g><path style="opacity:0.973" fill="#1aa7ff" d="M 140.5,256.5 C 140.524,276.549 145.524,295.549 155.5,313.5C 151.334,316.084 147,318.417 142.5,320.5C 132.83,303.15 127.164,284.483 125.5,264.5C 130.368,261.566 135.368,258.9 140.5,256.5 Z"/></g>
<g><path style="opacity:0.985" fill="#2367ff" d="M 439.5,262.5 C 443.836,264.332 447.836,266.665 451.5,269.5C 451.5,281.5 451.5,293.5 451.5,305.5C 447.836,308.335 443.836,310.668 439.5,312.5C 438.176,295.735 438.176,279.069 439.5,262.5 Z"/></g>
<g><path style="opacity:0.977" fill="#1e7dff" d="M 418.5,260.5 C 418.5,282.167 418.5,303.833 418.5,325.5C 410.964,329.768 403.297,333.768 395.5,337.5C 395.5,316.167 395.5,294.833 395.5,273.5C 402.672,268.411 410.339,264.077 418.5,260.5 Z"/></g>
<g><path style="opacity:0.977" fill="#1e9bff" d="M 125.5,264.5 C 127.164,284.483 132.83,303.15 142.5,320.5C 138.864,323.323 134.864,325.656 130.5,327.5C 129.504,327.586 128.671,327.252 128,326.5C 118.856,309.901 113.023,292.235 110.5,273.5C 115.299,270.263 120.299,267.263 125.5,264.5 Z"/></g>
<g><path style="opacity:0.975" fill="#255fff" d="M 451.5,269.5 C 458.671,273.251 465.671,277.251 472.5,281.5C 472.826,285.884 472.492,290.217 471.5,294.5C 465.1,298.699 458.433,302.366 451.5,305.5C 451.5,293.5 451.5,281.5 451.5,269.5 Z"/></g>
<g><path style="opacity:0.976" fill="#0bcaff" d="M 276.5,276.5 C 276.5,298.5 276.5,320.5 276.5,342.5C 272.836,345.335 268.836,347.668 264.5,349.5C 264.822,327.425 264.489,305.425 263.5,283.5C 267.674,280.912 272.007,278.579 276.5,276.5 Z"/></g>
<g><path style="opacity:0.973" fill="#0ec0ff" d="M 297.5,281.5 C 297.5,297.833 297.5,314.167 297.5,330.5C 290.996,335.255 283.996,339.255 276.5,342.5C 276.5,320.5 276.5,298.5 276.5,276.5C 284.319,274.872 291.319,276.538 297.5,281.5 Z"/></g>
<g><path style="opacity:0.977" fill="#228eff" d="M 110.5,273.5 C 113.023,292.235 118.856,309.901 128,326.5C 128.671,327.252 129.504,327.586 130.5,327.5C 125.667,330.418 120.667,333.084 115.5,335.5C 106.709,318.125 100.709,299.792 97.5,280.5C 101.577,277.773 105.91,275.439 110.5,273.5 Z"/></g>
<g><path style="opacity:0.98" fill="#1b8aff" d="M 395.5,273.5 C 395.5,294.833 395.5,316.167 395.5,337.5C 393.266,339.446 390.599,340.613 387.5,341C 383.179,341.499 378.846,341.666 374.5,341.5C 374.83,322.659 374.497,303.993 373.5,285.5C 380.505,280.995 387.839,276.995 395.5,273.5 Z"/></g>
<g><path style="opacity:0.963" fill="#10b6ff" d="M 297.5,281.5 C 305.337,285.584 313.003,289.917 320.5,294.5C 319.533,302.414 319.199,310.414 319.5,318.5C 312.206,322.482 304.873,326.482 297.5,330.5C 297.5,314.167 297.5,297.833 297.5,281.5 Z"/></g>
<g><path style="opacity:0.974" fill="#2682ff" d="M 97.5,280.5 C 100.709,299.792 106.709,318.125 115.5,335.5C 111.37,338.403 107.037,341.07 102.5,343.5C 92.745,326.317 86.0784,307.984 82.5,288.5C 87.3413,285.579 92.3413,282.912 97.5,280.5 Z"/></g>
<g><path style="opacity:0.971" fill="#1992ff" d="M 373.5,285.5 C 374.497,303.993 374.83,322.659 374.5,341.5C 370.356,341.223 366.689,339.89 363.5,337.5C 363.5,322.167 363.5,306.833 363.5,291.5C 366.466,289.012 369.799,287.012 373.5,285.5 Z"/></g>
<g><path style="opacity:0.972" fill="#2951ff" d="M 472.5,281.5 C 476.3,283.234 479.966,285.234 483.5,287.5C 484.829,315.664 484.829,343.664 483.5,371.5C 483.833,354.82 483.499,338.153 482.5,321.5C 464.058,332.384 445.391,342.718 426.5,352.5C 426.5,342.167 426.5,331.833 426.5,321.5C 430.493,318.201 434.827,315.201 439.5,312.5C 443.836,310.668 447.836,308.335 451.5,305.5C 458.433,302.366 465.1,298.699 471.5,294.5C 472.492,290.217 472.826,285.884 472.5,281.5 Z"/></g>
<g><path style="opacity:0.974" fill="#09d5ff" d="M 263.5,283.5 C 264.489,305.425 264.822,327.425 264.5,349.5C 257.996,354.255 250.996,358.255 243.5,361.5C 243.831,339.66 243.497,317.994 242.5,296.5C 249.296,291.93 256.296,287.597 263.5,283.5 Z"/></g>
<g><path style="opacity:0.964" fill="#179aff" d="M 363.5,291.5 C 363.5,306.833 363.5,322.167 363.5,337.5C 355.829,333.667 348.496,329.334 341.5,324.5C 341.5,315.833 341.5,307.167 341.5,298.5C 349.028,297.111 356.362,294.778 363.5,291.5 Z"/></g>
<g><path style="opacity:0.986" fill="#2976ff" d="M 82.5,288.5 C 86.0784,307.984 92.745,326.317 102.5,343.5C 97.1667,346.5 91.8333,349.5 86.5,352.5C 67.6728,362.077 49.3395,372.41 31.5,383.5C 30.207,382.158 29.3736,380.491 29,378.5C 28.1669,358.492 28.3336,338.492 29.5,318.5C 47.3562,308.741 65.0229,298.741 82.5,288.5 Z"/></g>
<g><path style="opacity:0.944" fill="#14a7ff" d="M 320.5,294.5 C 327.112,297.622 334.112,298.955 341.5,298.5C 341.5,307.167 341.5,315.833 341.5,324.5C 337.886,322.693 334.22,320.86 330.5,319C 326.848,318.501 323.182,318.335 319.5,318.5C 319.199,310.414 319.533,302.414 320.5,294.5 Z"/></g>
<g><path style="opacity:0.977" fill="#06e1ff" d="M 242.5,296.5 C 243.497,317.994 243.831,339.66 243.5,361.5C 236.036,366.403 228.369,371.07 220.5,375.5C 220.5,353.167 220.5,330.833 220.5,308.5C 227.54,303.98 234.874,299.98 242.5,296.5 Z"/></g>
<g><path style="opacity:0.976" fill="#03eeff" d="M 220.5,308.5 C 220.5,330.833 220.5,353.167 220.5,375.5C 216.194,377.988 211.861,380.488 207.5,383C 204.937,384.079 202.271,384.579 199.5,384.5C 199.5,363.167 199.5,341.833 199.5,320.5C 206.5,316.5 213.5,312.5 220.5,308.5 Z"/></g>
<g><path style="opacity:0.989" fill="#2a75ff" d="M 483.5,371.5 C 482.827,381.682 478.16,389.515 469.5,395C 401.236,434.13 332.903,472.963 264.5,511.5C 258.5,511.5 252.5,511.5 246.5,511.5C 226.702,500.433 207.035,489.1 187.5,477.5C 195.558,480.329 203.558,480.162 211.5,477C 226.728,468.895 241.395,460.062 255.5,450.5C 312.5,417.833 369.5,385.167 426.5,352.5C 445.391,342.718 464.058,332.384 482.5,321.5C 483.499,338.153 483.833,354.82 483.5,371.5 Z"/></g>
<g><path style="opacity:0.943" fill="#00f9ff" d="M 199.5,320.5 C 199.5,341.833 199.5,363.167 199.5,384.5C 195.59,384.737 191.923,383.904 188.5,382C 172.833,372.833 157.167,363.667 141.5,354.5C 160.861,343.155 180.194,331.822 199.5,320.5 Z"/></g>
<g><path style="opacity:0.977" fill="#2950ff" d="M 86.5,352.5 C 114.136,369.323 142.136,385.656 170.5,401.5C 144.516,408.83 118.516,416.163 92.5,423.5C 75.0554,413.895 57.7221,404.061 40.5,394C 36.9155,390.922 33.9155,387.422 31.5,383.5C 49.3395,372.41 67.6728,362.077 86.5,352.5 Z"/></g>
<g><path style="opacity:0.977" fill="#2e4dff" d="M 170.5,401.5 C 185.449,409.803 200.116,418.47 214.5,427.5C 188.168,434.166 161.834,440.833 135.5,447.5C 121.032,439.766 106.699,431.766 92.5,423.5C 118.516,416.163 144.516,408.83 170.5,401.5 Z"/></g>
<g><path style="opacity:0.976" fill="#3b44ff" d="M 214.5,427.5 C 228.301,434.901 241.968,442.568 255.5,450.5C 241.395,460.062 226.728,468.895 211.5,477C 203.558,480.162 195.558,480.329 187.5,477.5C 169.832,468.002 152.499,458.002 135.5,447.5C 161.834,440.833 188.168,434.166 214.5,427.5 Z"/></g>
</svg>
